<?xml version="1.0" standalone="no"?>
<!DOCTYPE svg PUBLIC "-//W3C//DTD SVG 20010904//EN"
        "http://www.w3.org/TR/2001/REC-SVG-20010904/DTD/svg10.dtd">
<svg version="1.0" xmlns="http://www.w3.org/2000/svg"
     width="500.000000pt" height="250.000000pt" viewBox="0 0 500.000000 250.000000"
     preserveAspectRatio="xMidYMid meet">
    <metadata>
        Created by potrace 1.14, written by Peter Selinger 2001-2017
    </metadata>
    <g transform="translate(0.000000,250.000000) scale(0.100000,-0.100000)"
       fill="#000000" stroke="none">
        <path d="M1901 1976 c-87 -48 -50 -186 49 -186 51 0 100 49 100 99 0 75 -83
124 -149 87z"/>
        <path d="M2294 1980 c-92 -37 -55 -190 46 -190 51 0 100 49 100 99 0 72 -76
120 -146 91z"/>
        <path d="M3013 1630 c-22 -5 -60 -18 -82 -30 -41 -21 -121 -94 -121 -111 0 -5
-4 -9 -10 -9 -6 0 -10 32 -10 75 l0 75 -70 0 -70 0 0 -495 0 -495 74 0 75 0 3
328 c3 317 4 329 26 377 49 107 117 150 238 150 72 0 86 -3 129 -30 35 -21 56
-44 74 -80 l26 -50 3 -347 3 -348 75 0 74 0 0 359 c0 336 -1 363 -21 426 -26
85 -97 162 -174 189 -59 20 -182 29 -242 16z"/>
        <path d="M3929 1626 c-142 -31 -260 -173 -295 -353 -48 -250 36 -491 203 -585
29 -17 51 -33 48 -37 -10 -18 -218 -111 -320 -144 -503 -165 -1215 -161 -1830
10 l-20 5 20 -16 c19 -16 19 -16 -10 -10 -16 4 -27 4 -24 1 11 -13 281 -76
429 -101 232 -38 352 -48 605 -48 470 0 848 81 1130 243 80 46 94 51 134 46
116 -13 242 33 316 115 l45 50 0 -246 0 -247 78 3 77 3 3 658 2 657 -75 0 -75
0 0 -75 c0 -41 -2 -75 -5 -75 -2 0 -24 21 -47 46 -90 97 -232 134 -389 100z
m247 -155 c153 -70 221 -299 149 -503 -37 -104 -148 -188 -251 -188 -112 0
-194 52 -246 158 -32 65 -33 70 -33 197 0 119 2 135 26 185 36 76 75 119 134
146 64 30 161 32 221 5z"/>
        <path d="M1870 1135 l0 -495 80 0 80 0 0 495 0 495 -80 0 -80 0 0 -495z"/>
        <path d="M2260 1135 l0 -495 80 0 80 0 0 495 0 495 -80 0 -80 0 0 -495z"/>
    </g>
</svg>
