<?xml version="1.0" encoding="utf-8"?>
<!-- Generator: Adobe Illustrator 21.1.0, SVG Export Plug-In . SVG Version: 6.00 Build 0)  -->
<svg version="1.1" id="Layer_1" xmlns="http://www.w3.org/2000/svg" xmlns:xlink="http://www.w3.org/1999/xlink" x="0px" y="0px"
	 viewBox="0 0 282.1 119.7" style="enable-background:new 0 0 282.1 119.7;" xml:space="preserve">
<style type="text/css">
	.st0{fill:none;stroke:url(#SVGID_1_);stroke-width:3;stroke-miterlimit:10;}
	.st1{fill:#494949;stroke:#494949;stroke-width:3;stroke-miterlimit:10;}
	.st2{fill:#FF931E;}
	.st3{fill:#FFFFFF;}
	.st4{font-family:'MyriadPro-Regular';}
	.st5{font-size:42.8602px;}
	.st6{fill:#494949;}
</style>
<linearGradient id="SVGID_1_" gradientUnits="userSpaceOnUse" x1="183.7344" y1="129.8662" x2="102.3184" y2="-11.1502" gradientTransform="matrix(0.9951 9.890000e-02 -9.890000e-02 0.9951 6.6042 -14.213)">
	<stop  offset="0" style="stop-color:#494949"/>
	<stop  offset="0.1517" style="stop-color:#6A6A6A"/>
	<stop  offset="0.4401" style="stop-color:#A2A2A2"/>
	<stop  offset="0.688" style="stop-color:#CBCBCB"/>
	<stop  offset="0.8826" style="stop-color:#E5E5E5"/>
	<stop  offset="1" style="stop-color:#EEEEEE"/>
</linearGradient>
<path class="st0" d="M36.3,46.7C39,16,88.9-3.4,147.8,3.4s104.6,37.2,102,67.9c-2.6,30.7-52.6,50.2-111.5,43.4S33.7,77.5,36.3,46.7z
	"/>
<ellipse class="st1" cx="239.4" cy="65.1" rx="20.6" ry="23"/>
<ellipse class="st2" cx="239.7" cy="64.8" rx="16" ry="18.1"/>
<text transform="matrix(0.9168 0 0 1 228.4688 75.5146)" class="st3 st4 st5">+</text>
<rect x="158.9" y="42.7" class="st6" width="5.8" height="43.9"/>
<rect x="256.2" y="42.1" class="st6" width="5.6" height="67.1"/>
<g>
	<path class="st6" d="M180.4,44v7.4h0.2c1.1-2.6,3-4.7,5.8-6.2c2.8-1.6,5.8-2.4,9.1-2.4c3.3,0,6,0.4,8.2,1.2c2.2,0.8,4,1.9,5.3,3.3
		c1.3,1.4,2.3,3.1,2.8,5.2c0.5,2,0.8,4.3,0.8,6.9v27.5h-5.7V60c0-1.8-0.2-3.5-0.5-5.1c-0.4-1.6-1-2.9-1.9-4.1
		c-0.9-1.2-2.1-2.1-3.7-2.7c-1.5-0.7-3.5-1-5.8-1c-2.3,0-4.3,0.4-6.1,1.1c-1.8,0.7-3.3,1.8-4.5,3.1c-1.2,1.3-2.2,2.8-2.9,4.6
		c-0.7,1.8-1.1,3.7-1.1,5.8v24.9h-5.7V44H180.4z"/>
</g>
<rect x="144.1" y="42.8" class="st6" width="5.8" height="43.9"/>
<circle class="st6" cx="161.5" cy="31.8" r="4.1"/>
<circle class="st6" cx="146.9" cy="31.8" r="4.1"/>
</svg>
